<svg xmlns="http://www.w3.org/2000/svg" viewBox="0 0 256 256"><linearGradient id="a" gradientUnits="userSpaceOnUse" x1="221.467" y1="-21.579" x2="34.533" y2="277.579"><stop offset="0" stop-color="#1066b1"/><stop offset="1" stop-color="#7c3b97"/></linearGradient><path fill="url(#a)" d="M0 0h256v256H0z"/><path d="M164.6 95.8l-4.4-4.4c-1.2-1.2-3.2-1.2-4.4 0l-64.3 64.3c-1.2 1.2-1.2 3.2 0 4.4l4.4 4.4c1.2 1.2 3.2 1.2 4.4 0l64.3-64.3c1.2-1.2 1.2-3.1 0-4.4zm-42.8 7.2c0-10.3-8.4-18.8-18.8-18.8S84.2 92.7 84.2 103s8.4 18.8 18.8 18.8 18.8-8.5 18.8-18.8zm-25 0c0-3.4 2.8-6.2 6.2-6.2s6.2 2.8 6.2 6.2-2.8 6.2-6.2 6.2-6.2-2.8-6.2-6.2zm56.2 31.2c-10.3 0-18.8 8.4-18.8 18.8s8.4 18.8 18.8 18.8 18.8-8.4 18.8-18.8-8.5-18.8-18.8-18.8zm0 25c-3.4 0-6.2-2.8-6.2-6.2s2.8-6.2 6.2-6.2 6.2 2.8 6.2 6.2-2.8 6.2-6.2 6.2zm75-31.2c0-13.9-7.6-26.6-19.4-33.4 3.6-13.1-.1-27.5-9.9-37.3s-24.2-13.5-37.3-9.9C154.6 35.6 141.9 28 128 28s-26.6 7.6-33.4 19.4c-13.1-3.6-27.5.1-37.3 9.9s-13.5 24.2-9.9 37.3C35.6 101.4 28 114.1 28 128s7.6 26.6 19.4 33.4c-3.6 13.1.1 27.5 9.9 37.3 10.4 10.4 24.8 13.3 37.3 9.9 6.8 11.8 19.5 19.4 33.4 19.4s26.6-7.6 33.4-19.4c12.8 3.5 27.1.3 37.3-9.9 9.8-9.8 13.5-24.2 9.9-37.3 11.8-6.8 19.4-19.5 19.4-33.4zm-35.6 26.7c2.1 4.6 11.5 21.1-2.5 35.2-11.3 11.3-22.5 8.3-35.2 2.5-1.8 4.7-6.8 23.1-26.7 23.1-20.4 0-25.3-19.3-26.7-23.1-12.7 5.8-23.9 8.7-35.2-2.5-14.4-14.3-4.3-31.4-2.5-35.2-4.7-1.8-23.1-6.8-23.1-26.7 0-20.4 19.3-25.3 23.1-26.7-2.1-4.6-11.5-21.1 2.5-35.2 14.4-14.4 31.6-4.2 35.2-2.5 1.8-4.7 6.8-23.1 26.7-23.1 20.4 0 25.3 19.3 26.7 23.1 4.6-2.1 21.1-11.5 35.2 2.5 14.4 14.3 4.3 31.4 2.5 35.2 4.7 1.8 23.1 6.8 23.1 26.7 0 20.4-19.3 25.3-23.1 26.7z" fill="#fff"/></svg>